<?xml version="1.0" encoding="UTF-8"?>
<svg width="17px" height="18px" viewBox="0 0 17 18" version="1.1" xmlns="http://www.w3.org/2000/svg" xmlns:xlink="http://www.w3.org/1999/xlink">
    <!-- Generator: sketchtool 50.2 (55047) - http://www.bohemiancoding.com/sketch -->
    <title>1F6FDCF2-D63A-434A-B1F6-A10EE10108F0</title>
    <desc>Created with sketchtool.</desc>
    <defs></defs>
    <g id="Page-1" stroke="none" stroke-width="1" fill="none" fill-rule="evenodd">
        <g id="01.4.1.2_Undergraduate_Calculator" transform="translate(-41.000000, -361.000000)" fill="#999999" fill-rule="nonzero">
            <g id="Group-3" transform="translate(15.000000, 66.000000)">
                <g id="select-university-copy-2" transform="translate(15.000000, 255.000000)">
                    <g id="Group-12" transform="translate(0.000000, 26.000000)">
                        <path d="M25.7272727,15.6363636 L24.9090909,15.6363636 L24.9090909,14.8181818 C24.9090909,14.3681818 24.5409091,14 24.0909091,14 C23.6409091,14 23.2727273,14.3681818 23.2727273,14.8181818 L23.2727273,15.6363636 L15.0909091,15.6363636 L15.0909091,14.8181818 C15.0909091,14.3681818 14.7227273,14 14.2727273,14 C13.8227273,14 13.4545455,14.3681818 13.4545455,14.8181818 L13.4545455,15.6363636 L12.6363636,15.6363636 C11.7363636,15.6363636 11,16.3727273 11,17.2727273 L11,30.3636364 C11,31.2636364 11.7363636,32 12.6363636,32 L25.7272727,32 C26.6272727,32 27.3636364,31.2636364 27.3636364,30.3636364 L27.3636364,17.2727273 C27.3636364,16.3727273 26.6272727,15.6363636 25.7272727,15.6363636 Z M24.9090909,30.3636364 L13.4545455,30.3636364 C13.0045455,30.3636364 12.6363636,29.9954545 12.6363636,29.5454545 L12.6363636,19.7272727 L25.7272727,19.7272727 L25.7272727,29.5454545 C25.7272727,29.9954545 25.3590909,30.3636364 24.9090909,30.3636364 Z" id="loan-period"></path>
                    </g>
                </g>
            </g>
        </g>
    </g>
</svg>